<svg width="28" height="28" viewBox="0 0 28 28" fill="none" xmlns="http://www.w3.org/2000/svg">
<path d="M6.5 24C6.89782 24 7.27936 23.8244 7.56066 23.5118C7.84196 23.1993 8 22.7754 8 22.3333V10.6667C8 10.2246 7.84196 9.80072 7.56066 9.48816C7.27936 9.1756 6.89782 9 6.5 9C6.10218 9 5.72064 9.1756 5.43934 9.48816C5.15804 9.80072 5 10.2246 5 10.6667V22.3333C5 22.7754 5.15804 23.1993 5.43934 23.5118C5.72064 23.8244 6.10218 24 6.5 24Z" fill="#25D366"/>
<path d="M10 5.81818V22.1818C10 22.664 10.158 23.1265 10.4393 23.4675C10.7206 23.8084 11.1022 24 11.5 24C11.8978 24 12.2794 23.8084 12.5607 23.4675C12.842 23.1265 13 22.664 13 22.1818V5.81818C13 5.33597 12.842 4.87351 12.5607 4.53253C12.2794 4.19156 11.8978 4 11.5 4C11.1022 4 10.7206 4.19156 10.4393 4.53253C10.158 4.87351 10 5.33597 10 5.81818Z" fill="#25D366"/>
<path d="M15 13.5V22.5C15 22.8978 15.158 23.2794 15.4393 23.5607C15.7206 23.842 16.1022 24 16.5 24C16.8978 24 17.2794 23.842 17.5607 23.5607C17.842 23.2794 18 22.8978 18 22.5V13.5C18 13.1022 17.842 12.7206 17.5607 12.4393C17.2794 12.158 16.8978 12 16.5 12C16.1022 12 15.7206 12.158 15.4393 12.4393C15.158 12.7206 15 13.1022 15 13.5Z" fill="#25D366"/>
<path d="M20 8.41667V22.5833C20 22.9591 20.158 23.3194 20.4393 23.5851C20.7206 23.8507 21.1022 24 21.5 24C21.8978 24 22.2794 23.8507 22.5607 23.5851C22.842 23.3194 23 22.9591 23 22.5833V8.41667C23 8.04094 22.842 7.68061 22.5607 7.41493C22.2794 7.14926 21.8978 7 21.5 7C21.1022 7 20.7206 7.14926 20.4393 7.41493C20.158 7.68061 20 8.04094 20 8.41667Z" fill="#25D366"/>
<path d="M25 2V22C25 22.5304 25.158 23.0391 25.4393 23.4142C25.7206 23.7893 26.1022 24 26.5 24C26.8978 24 27.2794 23.7893 27.5607 23.4142C27.842 23.0391 28 22.5304 28 22V2C28 1.46957 27.842 0.96086 27.5607 0.585787C27.2794 0.210714 26.8978 0 26.5 0C26.1022 0 25.7206 0.210714 25.4393 0.585787C25.158 0.96086 25 1.46957 25 2Z" fill="#25D366"/>
</svg>
